<svg width="13" height="14" viewBox="0 0 13 14" fill="none" xmlns="http://www.w3.org/2000/svg">
<path d="M3.92188 1.875H3.79688C3.86562 1.875 3.92188 1.81875 3.92188 1.75V1.875H8.67188V1.75C8.67188 1.81875 8.72812 1.875 8.79688 1.875H8.67188V3H9.79688V1.75C9.79688 1.19844 9.34844 0.75 8.79688 0.75H3.79688C3.24531 0.75 2.79688 1.19844 2.79688 1.75V3H3.92188V1.875ZM11.7969 3H0.796875C0.520312 3 0.296875 3.22344 0.296875 3.5V4C0.296875 4.06875 0.353125 4.125 0.421875 4.125H1.36562L1.75156 12.2969C1.77656 12.8297 2.21719 13.25 2.75 13.25H9.84375C10.3781 13.25 10.8172 12.8313 10.8422 12.2969L11.2281 4.125H12.1719C12.2406 4.125 12.2969 4.06875 12.2969 4V3.5C12.2969 3.22344 12.0734 3 11.7969 3ZM9.72344 12.125H2.87031L2.49219 4.125H10.1016L9.72344 12.125Z" fill="#595959"/>
</svg>
